<svg width="136" height="135" viewBox="0 0 136 135" fill="none" xmlns="http://www.w3.org/2000/svg">
<path d="M107.5 12L92.9 34.2C95 36.3 96.7 38.5 98.2 41.5H128.6C124.6 28.5 117.6 19.1 107.5 12ZM46.1 105.1L32.5 125.8L46.1 105.1ZM90.3 104.5L90.5 104.9V104.5H90.3Z" fill="#D80F0F"/>
<path d="M107.5 11.9L92.9 34.1C90.8 32 88.4 30.2 85.8 28.7C80.5 25.8 74.3 24.4 67.3 24.4C59.5 24.4 52.6 26.2 46.5 29.7C42.7 31.9 39.5 34.7 36.7 38.1L20.4 17.7C24.1 14.2 28.3 11.1 32.9 8.6C43.2 2.9 54.6 0 67.2 0C82.1 0 95 3.6 105.9 10.9C106.5 11.2 107 11.5 107.5 11.9Z" fill="#FF0000"/>
<path d="M46.1 105.1L32.5 125.7C22.4 120 14.5 112.1 8.8 102.1C2.9 91.9999 0 80.4 0 67.4C0 54.4 2.9 42.7999 8.8 32.5999C12 26.8999 15.9 22 20.4 17.7L36.7 38C35.1 40 33.6 42.3 32.3 44.7C28.9 51.2 27.2 58.8 27.2 67.4C27.2 76.2 28.9 83.8999 32.4 90.3999C35.7 96.6999 40.3 101.6 46.1 105.1Z" fill="#FFB000"/>
<path d="M105.2 123.3C105.2 123.3 105.1 123.3 105.1 123.4C102.9 124.9 100.6 126.3 98.1 127.6C89 132.3 78.7 134.7 67.4 134.7C54.7 134.7 43.2 131.8 32.9 126.1C32.7 126 32.6 125.9 32.5 125.8L46.1 105.2C46.3 105.3 46.6 105.4 46.8 105.5C53 109 60.1 110.7 68.3 110.7C76.9 110.7 84.2 108.5 90.2 104.6L90.5 105V104.8L105.1 123.2L105.2 123.3Z" fill="#42C412"/>
<path d="M135.7 60.1C135.7 60.1 133.7 92 120.5 108.7C116.1 114.2 111.1 119.1 105.2 123.2L105.1 123.1L90.5 104.7V104.4H90.3C91.3 104.4 92.2 103.3 93.1 102.5C99.5 97.2 103.7 90.4 105.7 80.4H70.8L66.4 74.7V60.1L75.8 60.5L135.7 60.1Z" fill="#1560E5"/>
</svg>
